<svg width="751" height="750" viewBox="0 0 751 750" xmlns="http://www.w3.org/2000/svg"><g fill="none" fill-rule="evenodd"><g transform="translate(69.014 48)"><g stroke-width="30"><path d="M26.6832798,510.384367 C27.4913267,510.59312 28.5986681,510.729984 29.9955397,510.729984 L581.703735,510.729984 C583.100647,510.729984 584.207705,510.592892 585.015166,510.383857 C584.78953,509.578038 584.349987,508.548385 583.644873,507.336353 L307.972954,33.4793469 C307.211003,32.169617 306.477839,31.2326097 305.849717,30.637227 C305.221474,31.2326362 304.488241,32.1696704 303.726321,33.4793469 L28.054402,507.336353 C27.3493209,508.548328 26.9094419,509.578138 26.6832798,510.384367 Z" stroke="#36454F" fill="#36454F"/><path d="M305.4389,89.7825779 L249.431411,187.586607 L266.841766,179.510701 L292.173185,230.282161 L335.17535,164.43661 L360.385639,184.21748 L305.4389,89.7825779 Z" stroke="#FFF" fill="#FFF"/></g><ellipse stroke="#4DC1DE" stroke-width="9.096" cx="306" cy="376.085" rx="100.452" ry="38.537"/><ellipse stroke="#4DC1DE" stroke-width="9.096" transform="rotate(-60 305.813 376.475)" cx="305.813" cy="376.475" rx="100.452" ry="38.537"/><ellipse stroke="#4DC1DE" stroke-width="9.096" transform="rotate(-120 305.813 376.475)" cx="305.813" cy="376.475" rx="100.452" ry="38.537"/><ellipse fill="#4DC1DE" cx="303.938" cy="375.91" rx="18.938" ry="18.91"/></g></g></svg>
