<svg width="41" height="32" viewBox="0 0 41 32" fill="none" xmlns="http://www.w3.org/2000/svg">
<g clip-path="url(#clip0_51_331)">
<path d="M34.7082 2.84957C32.095 1.64148 29.2928 0.751418 26.3628 0.24164C26.3095 0.231802 26.2562 0.256389 26.2287 0.305564C25.8683 0.951389 25.4691 1.79392 25.1895 2.45615C22.0382 1.9808 18.903 1.9808 15.8163 2.45615C15.5367 1.7792 15.123 0.951389 14.761 0.305564C14.7335 0.25803 14.6802 0.233443 14.6268 0.24164C11.6985 0.749789 8.89625 1.63985 6.28143 2.84957C6.25879 2.8594 6.23939 2.87581 6.22651 2.8971C0.911211 10.8979 -0.544873 18.7021 0.169433 26.4095C0.172665 26.4472 0.193674 26.4833 0.222763 26.5062C3.72965 29.101 7.12667 30.6762 10.4606 31.7204C10.514 31.7368 10.5705 31.7171 10.6044 31.6728C11.3931 30.5878 12.0961 29.4436 12.6989 28.2404C12.7344 28.1699 12.7005 28.0863 12.6278 28.0585C11.5127 27.6323 10.4509 27.1127 9.42954 26.5226C9.34875 26.4751 9.34228 26.3586 9.4166 26.3029C9.63154 26.1406 9.84653 25.9718 10.0518 25.8013C10.0889 25.7702 10.1406 25.7636 10.1843 25.7833C16.8942 28.8699 24.1585 28.8699 30.7892 25.7833C30.8329 25.762 30.8846 25.7686 30.9234 25.7997C31.1286 25.9702 31.3436 26.1406 31.5601 26.3029C31.6344 26.3586 31.6296 26.4751 31.5488 26.5226C30.5274 27.1241 29.4657 27.6323 28.349 28.0568C28.2763 28.0847 28.2439 28.1699 28.2795 28.2404C28.8952 29.4419 29.5982 30.5861 30.3723 31.6712C30.4046 31.7171 30.4628 31.7368 30.5161 31.7204C33.8662 30.6762 37.2632 29.101 40.7701 26.5062C40.8008 26.4833 40.8202 26.4488 40.8235 26.4111C41.6783 17.5005 39.3916 9.76035 34.7615 2.89873C34.7502 2.87581 34.7309 2.8594 34.7082 2.84957ZM13.7009 21.7165C11.6807 21.7165 10.0162 19.8479 10.0162 17.553C10.0162 15.2581 11.6484 13.3895 13.7009 13.3895C15.7694 13.3895 17.4178 15.2745 17.3855 17.553C17.3855 19.8479 15.7532 21.7165 13.7009 21.7165ZM27.3244 21.7165C25.3043 21.7165 23.6397 19.8479 23.6397 17.553C23.6397 15.2581 25.2719 13.3895 27.3244 13.3895C29.393 13.3895 31.0413 15.2745 31.0091 17.553C31.0091 19.8479 29.393 21.7165 27.3244 21.7165Z" fill="#5865F2"/>
</g>
<defs>
<clipPath id="clip0_51_331">
<rect width="41" height="32" fill="white"/>
</clipPath>
</defs>
</svg>
