<svg width="209" height="35" viewBox="0 0 209 35" fill="none" xmlns="http://www.w3.org/2000/svg">
<path d="M53.517 26V8.54545H60.4034C61.7216 8.54545 62.8466 8.78125 63.7784 9.25284C64.7159 9.71875 65.429 10.3807 65.9176 11.2386C66.4119 12.0909 66.6591 13.0937 66.6591 14.2472C66.6591 15.4062 66.4091 16.4034 65.9091 17.2386C65.4091 18.0682 64.6847 18.7045 63.7358 19.1477C62.7926 19.5909 61.6506 19.8125 60.3097 19.8125H55.6989V16.8466H59.7131C60.4176 16.8466 61.0028 16.75 61.4688 16.5568C61.9347 16.3636 62.2813 16.0739 62.5085 15.6875C62.7415 15.3011 62.858 14.821 62.858 14.2472C62.858 13.6676 62.7415 13.179 62.5085 12.7812C62.2813 12.3835 61.9318 12.0824 61.4602 11.8778C60.9943 11.6676 60.4063 11.5625 59.696 11.5625H57.2074V26H53.517ZM62.9432 18.0568L67.2812 26H63.2074L58.9631 18.0568H62.9432ZM74.9538 26.2557C73.6072 26.2557 72.4482 25.983 71.4766 25.4375C70.5107 24.8864 69.7663 24.108 69.2436 23.1023C68.7209 22.0909 68.4595 20.8949 68.4595 19.5142C68.4595 18.1676 68.7209 16.9858 69.2436 15.9688C69.7663 14.9517 70.5021 14.1591 71.451 13.5909C72.4055 13.0227 73.5249 12.7386 74.8089 12.7386C75.6726 12.7386 76.4766 12.8778 77.2209 13.1562C77.9709 13.429 78.6243 13.8409 79.1811 14.392C79.7436 14.9432 80.1811 15.6364 80.4936 16.4716C80.8061 17.3011 80.9624 18.2727 80.9624 19.3864V20.3835H69.9084V18.1335H77.5447C77.5447 17.6108 77.4311 17.1477 77.2038 16.7443C76.9766 16.3409 76.6612 16.0256 76.2578 15.7983C75.8601 15.5653 75.397 15.4489 74.8686 15.4489C74.3175 15.4489 73.8288 15.5767 73.4027 15.8324C72.9822 16.0824 72.6527 16.4205 72.4141 16.8466C72.1754 17.267 72.0533 17.7358 72.0476 18.2528V20.392C72.0476 21.0398 72.1669 21.5994 72.4055 22.071C72.6499 22.5426 72.9936 22.9062 73.4368 23.1619C73.88 23.4176 74.4055 23.5455 75.0135 23.5455C75.4169 23.5455 75.7862 23.4886 76.1214 23.375C76.4567 23.2614 76.7436 23.0909 76.9822 22.8636C77.2209 22.6364 77.4027 22.358 77.5277 22.0284L80.8857 22.25C80.7152 23.0568 80.3658 23.7614 79.8374 24.3636C79.3146 24.9602 78.6385 25.4261 77.8089 25.7614C76.9851 26.0909 76.0334 26.2557 74.9538 26.2557ZM87.0646 26.2472C86.2294 26.2472 85.4851 26.1023 84.8317 25.8125C84.1783 25.517 83.6612 25.0824 83.2805 24.5085C82.9055 23.929 82.718 23.2074 82.718 22.3438C82.718 21.6165 82.8516 21.0057 83.1186 20.5114C83.3857 20.017 83.7493 19.6193 84.2095 19.3182C84.6697 19.017 85.1925 18.7898 85.7777 18.6364C86.3686 18.483 86.9879 18.375 87.6357 18.3125C88.397 18.233 89.0107 18.1591 89.4766 18.0909C89.9425 18.017 90.2805 17.9091 90.4908 17.767C90.701 17.625 90.8061 17.4148 90.8061 17.1364V17.0852C90.8061 16.5455 90.6357 16.1278 90.2947 15.8324C89.9595 15.5369 89.4822 15.3892 88.8629 15.3892C88.2095 15.3892 87.6896 15.5341 87.3033 15.8239C86.9169 16.108 86.6612 16.4659 86.5362 16.8977L83.1783 16.625C83.3487 15.8295 83.6839 15.142 84.1839 14.5625C84.6839 13.9773 85.3288 13.5284 86.1186 13.2159C86.9141 12.8977 87.8345 12.7386 88.88 12.7386C89.6072 12.7386 90.3033 12.8239 90.968 12.9943C91.6385 13.1648 92.2322 13.429 92.7493 13.7869C93.272 14.1449 93.6839 14.6051 93.9851 15.1676C94.2862 15.7244 94.4368 16.392 94.4368 17.1705V26H90.9936V24.1847H90.8913C90.6811 24.5938 90.3999 24.9545 90.0476 25.267C89.6953 25.5739 89.272 25.8153 88.7777 25.9915C88.2834 26.1619 87.7124 26.2472 87.0646 26.2472ZM88.1044 23.7415C88.6385 23.7415 89.1101 23.6364 89.5192 23.4261C89.9283 23.2102 90.2493 22.9205 90.4822 22.5568C90.7152 22.1932 90.8317 21.7812 90.8317 21.321V19.9318C90.718 20.0057 90.5618 20.0739 90.3629 20.1364C90.1697 20.1932 89.951 20.2472 89.7067 20.2983C89.4624 20.3437 89.218 20.3864 88.9737 20.4261C88.7294 20.4602 88.5078 20.4915 88.3089 20.5199C87.8828 20.5824 87.5107 20.6818 87.1925 20.8182C86.8743 20.9545 86.6271 21.1392 86.451 21.3722C86.2749 21.5994 86.1868 21.8835 86.1868 22.2244C86.1868 22.7188 86.3658 23.0966 86.7237 23.358C87.0874 23.6136 87.5476 23.7415 88.1044 23.7415ZM103.168 26.2557C101.827 26.2557 100.674 25.9716 99.7081 25.4034C98.7479 24.8295 98.0092 24.0341 97.4922 23.017C96.9808 22 96.7251 20.8295 96.7251 19.5057C96.7251 18.1648 96.9837 16.9886 97.5007 15.9773C98.0234 14.9602 98.7649 14.1676 99.7251 13.5994C100.685 13.0256 101.827 12.7386 103.151 12.7386C104.293 12.7386 105.293 12.946 106.151 13.3608C107.009 13.7756 107.688 14.358 108.188 15.108C108.688 15.858 108.964 16.7386 109.015 17.75H105.589C105.492 17.0966 105.237 16.571 104.822 16.1733C104.413 15.7699 103.876 15.5682 103.211 15.5682C102.648 15.5682 102.157 15.7216 101.737 16.0284C101.322 16.3295 100.998 16.7699 100.765 17.3494C100.532 17.929 100.415 18.6307 100.415 19.4545C100.415 20.2898 100.529 21 100.756 21.5852C100.989 22.1705 101.316 22.6165 101.737 22.9233C102.157 23.2301 102.648 23.3835 103.211 23.3835C103.626 23.3835 103.998 23.2983 104.327 23.1278C104.663 22.9574 104.938 22.7102 105.154 22.3864C105.376 22.0568 105.521 21.6619 105.589 21.2017H109.015C108.958 22.2017 108.685 23.0824 108.197 23.8438C107.714 24.5994 107.046 25.1903 106.194 25.6165C105.342 26.0426 104.333 26.2557 103.168 26.2557ZM118.303 12.9091V15.6364H110.419V12.9091H118.303ZM112.209 9.77273H115.839V21.9773C115.839 22.3125 115.891 22.5739 115.993 22.7614C116.095 22.9432 116.237 23.071 116.419 23.1449C116.607 23.2187 116.822 23.2557 117.067 23.2557C117.237 23.2557 117.408 23.2415 117.578 23.2131C117.749 23.179 117.879 23.1534 117.97 23.1364L118.541 25.8381C118.359 25.8949 118.104 25.9602 117.774 26.0341C117.445 26.1136 117.044 26.1619 116.572 26.179C115.697 26.2131 114.93 26.0966 114.271 25.8295C113.618 25.5625 113.109 25.1477 112.746 24.5852C112.382 24.0227 112.203 23.3125 112.209 22.4545V9.77273ZM132.478 26H126.29V8.54545H132.529C134.285 8.54545 135.796 8.89489 137.063 9.59375C138.33 10.2869 139.305 11.2841 139.987 12.5852C140.674 13.8864 141.018 15.4432 141.018 17.2557C141.018 19.0739 140.674 20.6364 139.987 21.9432C139.305 23.25 138.325 24.2528 137.046 24.9517C135.773 25.6506 134.251 26 132.478 26ZM129.981 22.8381H132.325C133.415 22.8381 134.333 22.6449 135.077 22.2585C135.827 21.8665 136.39 21.2614 136.765 20.4432C137.146 19.6193 137.336 18.5568 137.336 17.2557C137.336 15.9659 137.146 14.9119 136.765 14.0938C136.39 13.2756 135.83 12.6733 135.086 12.2869C134.342 11.9006 133.424 11.7074 132.333 11.7074H129.981V22.8381ZM149.649 26.2557C148.303 26.2557 147.143 25.983 146.172 25.4375C145.206 24.8864 144.462 24.108 143.939 23.1023C143.416 22.0909 143.155 20.8949 143.155 19.5142C143.155 18.1676 143.416 16.9858 143.939 15.9688C144.462 14.9517 145.197 14.1591 146.146 13.5909C147.101 13.0227 148.22 12.7386 149.504 12.7386C150.368 12.7386 151.172 12.8778 151.916 13.1562C152.666 13.429 153.32 13.8409 153.876 14.392C154.439 14.9432 154.876 15.6364 155.189 16.4716C155.501 17.3011 155.658 18.2727 155.658 19.3864V20.3835H144.604V18.1335H152.24C152.24 17.6108 152.126 17.1477 151.899 16.7443C151.672 16.3409 151.357 16.0256 150.953 15.7983C150.555 15.5653 150.092 15.4489 149.564 15.4489C149.013 15.4489 148.524 15.5767 148.098 15.8324C147.678 16.0824 147.348 16.4205 147.109 16.8466C146.871 17.267 146.749 17.7358 146.743 18.2528V20.392C146.743 21.0398 146.862 21.5994 147.101 22.071C147.345 22.5426 147.689 22.9062 148.132 23.1619C148.575 23.4176 149.101 23.5455 149.709 23.5455C150.112 23.5455 150.482 23.4886 150.817 23.375C151.152 23.2614 151.439 23.0909 151.678 22.8636C151.916 22.6364 152.098 22.358 152.223 22.0284L155.581 22.25C155.411 23.0568 155.061 23.7614 154.533 24.3636C154.01 24.9602 153.334 25.4261 152.504 25.7614C151.68 26.0909 150.729 26.2557 149.649 26.2557ZM161.658 18.4318V26H158.027V12.9091H161.487V15.2188H161.641C161.93 14.4574 162.416 13.8551 163.098 13.4119C163.78 12.9631 164.607 12.7386 165.578 12.7386C166.487 12.7386 167.28 12.9375 167.956 13.3352C168.632 13.733 169.158 14.3011 169.533 15.0398C169.908 15.7727 170.095 16.6477 170.095 17.6648V26H166.464V18.3125C166.47 17.5114 166.266 16.8864 165.851 16.4375C165.436 15.983 164.865 15.7557 164.138 15.7557C163.649 15.7557 163.217 15.8608 162.842 16.071C162.473 16.2812 162.183 16.5881 161.973 16.9915C161.768 17.3892 161.663 17.8693 161.658 18.4318ZM184.692 12.9091L180.116 26H176.025L171.448 12.9091H175.283L178.002 22.2756H178.138L180.849 12.9091H184.692ZM192.094 26.2557C190.748 26.2557 189.589 25.983 188.617 25.4375C187.651 24.8864 186.907 24.108 186.384 23.1023C185.862 22.0909 185.6 20.8949 185.6 19.5142C185.6 18.1676 185.862 16.9858 186.384 15.9688C186.907 14.9517 187.643 14.1591 188.592 13.5909C189.546 13.0227 190.665 12.7386 191.95 12.7386C192.813 12.7386 193.617 12.8778 194.362 13.1562C195.112 13.429 195.765 13.8409 196.322 14.392C196.884 14.9432 197.322 15.6364 197.634 16.4716C197.947 17.3011 198.103 18.2727 198.103 19.3864V20.3835H187.049V18.1335H194.685C194.685 17.6108 194.572 17.1477 194.344 16.7443C194.117 16.3409 193.802 16.0256 193.398 15.7983C193.001 15.5653 192.538 15.4489 192.009 15.4489C191.458 15.4489 190.969 15.5767 190.543 15.8324C190.123 16.0824 189.793 16.4205 189.555 16.8466C189.316 17.267 189.194 17.7358 189.188 18.2528V20.392C189.188 21.0398 189.308 21.5994 189.546 22.071C189.79 22.5426 190.134 22.9062 190.577 23.1619C191.021 23.4176 191.546 23.5455 192.154 23.5455C192.558 23.5455 192.927 23.4886 193.262 23.375C193.597 23.2614 193.884 23.0909 194.123 22.8636C194.362 22.6364 194.543 22.358 194.668 22.0284L198.026 22.25C197.856 23.0568 197.506 23.7614 196.978 24.3636C196.455 24.9602 195.779 25.4261 194.95 25.7614C194.126 26.0909 193.174 26.2557 192.094 26.2557ZM200.472 26V12.9091H203.992V15.1932H204.129C204.367 14.3807 204.768 13.767 205.33 13.3523C205.893 12.9318 206.54 12.7216 207.273 12.7216C207.455 12.7216 207.651 12.733 207.862 12.7557C208.072 12.7784 208.256 12.8097 208.415 12.8494V16.071C208.245 16.0199 208.009 15.9744 207.708 15.9347C207.407 15.8949 207.131 15.875 206.881 15.875C206.347 15.875 205.87 15.9915 205.45 16.2244C205.035 16.4517 204.705 16.7699 204.461 17.179C204.222 17.5881 204.103 18.0597 204.103 18.5938V26H200.472Z" fill="#374650"/>
<path d="M20.4562 27.4467C20.5754 27.4464 20.6648 27.4464 20.8435 27.4464C20.5486 27.8032 20.2975 28.1072 20.005 28.4611C19.7188 28.1251 19.4621 27.8238 19.141 27.447C19.6305 27.447 20.0285 27.447 20.4562 27.4467Z" fill="#374853"/>
<path d="M22.6543 23.3109C22.4734 22.9986 22.3041 22.7087 22.0938 22.3486C22.5458 22.4272 22.9324 22.4945 23.3927 22.5745C23.2441 22.9852 23.111 23.3531 22.9435 23.816C22.8167 23.5956 22.7413 23.4644 22.6543 23.3109Z" fill="#374A55"/>
<path d="M18.557 26.6028C18.1973 25.9856 17.8411 25.3955 17.5173 24.788C17.4516 24.6649 17.4518 24.4463 17.5179 24.3236C17.8548 23.6976 18.2155 23.0837 18.5884 22.4783C18.6516 22.3757 18.8136 22.2782 18.9326 22.275C19.6429 22.2556 20.3543 22.255 21.0647 22.2733C21.1838 22.2763 21.3466 22.3738 21.4095 22.4765C21.7869 23.0924 22.149 23.7182 22.4951 24.3522C22.5527 24.4576 22.5563 24.6467 22.4998 24.7512C22.1671 25.3668 21.817 25.9735 21.4525 26.5709C21.3881 26.6766 21.2301 26.786 21.1128 26.7889C20.3682 26.8072 19.6227 26.8027 18.8778 26.7871C18.7748 26.785 18.6738 26.6807 18.557 26.6028ZM18.6312 24.8295C18.884 25.5998 19.5837 25.9748 20.301 25.7246C20.9713 25.4908 21.3232 24.7378 21.074 24.0704C20.8526 23.4775 20.2046 23.124 19.6005 23.2666C18.9058 23.4306 18.5225 24.0172 18.6312 24.8295Z" fill="#364751"/>
<path d="M22.587 30.248C21.722 30.0206 21.0895 29.483 20.4614 28.9095C20.8533 28.4122 21.2271 27.9341 21.6073 27.4612C21.6444 27.415 21.7179 27.3834 21.7791 27.3736C22.3464 27.2831 22.9146 27.1989 23.5248 27.1064C23.735 27.9893 23.9016 28.8702 23.5919 29.7608C23.4365 30.2075 23.1356 30.3389 22.587 30.248Z" fill="#364651"/>
<path d="M23.5775 25.2397C23.2967 24.773 23.312 24.3462 23.5605 23.8845C23.7455 23.5409 23.8447 23.1511 23.9957 22.7456C24.8143 23.0057 25.6092 23.2845 26.2217 23.9099C26.6314 24.3283 26.6264 24.7377 26.213 25.1576C25.6054 25.7747 24.8178 26.0516 23.9828 26.317C23.8467 25.9533 23.7177 25.6085 23.5775 25.2397Z" fill="#364651"/>
<path d="M16.3596 29.6472C16.1591 28.8311 16.2577 28.0492 16.4337 27.2733C16.4489 27.2062 16.5806 27.1451 16.669 27.1215C16.7367 27.1033 16.8209 27.152 16.8988 27.165C17.3772 27.2448 17.9583 27.1813 18.3097 27.4357C18.8022 27.7923 19.1238 28.385 19.5394 28.9028C18.9357 29.4708 18.3076 29.9969 17.4916 30.2283C16.8968 30.3969 16.6246 30.2497 16.3596 29.6472Z" fill="#364651"/>
<path d="M15.387 26.0956C14.858 25.7922 14.3126 25.5489 13.8613 25.188C13.3486 24.7779 13.3798 24.3144 13.8563 23.8538C14.4515 23.2786 15.2084 23.0133 15.9901 22.7526C16.2222 23.3381 16.4486 23.9001 16.6644 24.466C16.6892 24.5309 16.6729 24.6248 16.6463 24.6939C16.4432 25.22 16.2329 25.7432 16.0099 26.3049C15.8113 26.2381 15.6117 26.1709 15.387 26.0956Z" fill="#364651"/>
<path d="M22.8059 18.8253C23.2452 18.8132 23.4944 19.0343 23.613 19.4039C23.8865 20.257 23.7279 21.0961 23.5444 21.9539C22.9021 21.8576 22.3005 21.7698 21.7002 21.6735C21.6422 21.6641 21.5806 21.6114 21.541 21.5624C21.1866 21.1235 20.8368 20.6809 20.4591 20.2059C21.1405 19.5843 21.8295 18.9951 22.8059 18.8253Z" fill="#364651"/>
<path d="M16.3235 21.2751C16.326 20.6737 16.2699 20.0918 16.3598 19.5335C16.4586 18.9203 16.8616 18.7211 17.463 18.8786C18.2888 19.095 18.9096 19.6371 19.5433 20.2012C19.1611 20.6809 18.7929 21.1458 18.4198 21.6067C18.3882 21.6459 18.3261 21.6732 18.2743 21.6814C17.6857 21.774 17.0964 21.8619 16.4502 21.9597C16.409 21.7366 16.3691 21.5208 16.3235 21.2751Z" fill="#364651"/>
<path d="M17.6399 22.399C17.7189 22.3857 17.7731 22.3766 17.8939 22.3565C17.6087 22.852 17.3504 23.3007 17.0527 23.8178C16.8937 23.3735 16.7596 22.9991 16.6104 22.5825C16.9774 22.5171 17.2963 22.4602 17.6399 22.399Z" fill="#374A55"/>
<path d="M22.9722 25.4107C23.1106 25.7649 23.2341 26.1019 23.373 26.4807C22.9585 26.559 22.5856 26.6295 22.2126 26.7C22.1896 26.6793 22.1666 26.6587 22.1436 26.638C22.4149 26.2232 22.6861 25.8084 22.9722 25.4107Z" fill="#374A55"/>
<path d="M17.3559 25.8205C17.5194 26.1051 17.6718 26.3675 17.8668 26.7033C17.4322 26.626 17.0659 26.5609 16.6304 26.4835C16.7697 26.0892 16.8948 25.7349 17.0472 25.3037C17.1696 25.5072 17.2572 25.6528 17.3559 25.8205Z" fill="#374A55"/>
<path d="M19.5637 21.6068C19.4563 21.603 19.3793 21.599 19.2113 21.5901C19.4902 21.2585 19.7279 20.976 19.9993 20.6535C20.2706 20.9728 20.5073 21.2514 20.809 21.6065C20.3441 21.6065 19.9691 21.6065 19.5637 21.6068Z" fill="#374852"/>
<path d="M15.6907 29.5089C15.5414 28.6266 15.6728 27.7907 15.8653 26.9313C15.5994 26.8332 15.3353 26.7417 15.0758 26.6388C14.4082 26.374 13.7735 26.0546 13.2881 25.5033C12.7434 24.8846 12.7332 24.1941 13.2731 23.5744C13.8595 22.9014 14.6514 22.566 15.4667 22.2746C15.5831 22.233 15.6999 22.1927 15.8253 22.1486C15.7621 21.672 15.6687 21.2069 15.6477 20.7385C15.6291 20.3245 15.643 19.8969 15.7267 19.4927C15.9521 18.4033 16.7231 17.9794 17.7785 18.3221C18.5382 18.5688 19.1584 19.0398 19.7514 19.5538C19.8279 19.6201 19.9029 19.6883 19.9832 19.7597C20.3345 19.4827 20.6544 19.1683 21.0301 18.9499C21.5036 18.6747 22.0039 18.4126 22.5264 18.2626C23.302 18.0401 23.9288 18.4267 24.1983 19.2043C24.4625 19.9665 24.3874 20.7448 24.2678 21.521C24.2386 21.7104 24.1948 21.8975 24.1509 22.1199C24.264 22.164 24.3739 22.2114 24.4868 22.2501C25.1972 22.4931 25.8828 22.785 26.46 23.2807C27.3717 24.0636 27.3777 24.969 26.4768 25.7632C25.905 26.2671 25.2169 26.5549 24.5086 26.8022C24.4021 26.8394 24.2947 26.8738 24.1536 26.9208C24.2103 27.275 24.3008 27.6261 24.3152 27.9803C24.3366 28.5084 24.3639 29.048 24.2826 29.5662C24.1102 30.6664 23.3006 31.132 22.2409 30.7968C21.4795 30.5561 20.856 30.0889 20.2641 29.5725C20.1802 29.4994 20.0962 29.4263 20.0297 29.3684C19.5479 29.7218 19.0988 30.0832 18.6166 30.3931C18.3258 30.58 17.9951 30.7287 17.662 30.8218C16.6251 31.1118 15.9544 30.66 15.6907 29.5089ZM18.5719 26.6237C18.6738 26.6807 18.7748 26.785 18.8778 26.7871C19.6227 26.8027 20.3682 26.8072 21.1128 26.7889C21.2301 26.786 21.3881 26.6766 21.4525 26.5709C21.817 25.9735 22.1671 25.3668 22.4998 24.7512C22.5563 24.6467 22.5527 24.4576 22.4951 24.3522C22.149 23.7182 21.7869 23.0924 21.4095 22.4765C21.3466 22.3738 21.1838 22.2763 21.0647 22.2732C20.3543 22.255 19.6429 22.2556 18.9326 22.275C18.8136 22.2782 18.6516 22.3757 18.5884 22.4783C18.2155 23.0837 17.8548 23.6976 17.5179 24.3236C17.4518 24.4463 17.4516 24.6649 17.5173 24.788C17.8411 25.3954 18.1973 25.9856 18.5719 26.6237ZM22.6139 30.2544C23.1356 30.3389 23.4366 30.2074 23.5919 29.7608C23.9016 28.8702 23.735 27.9893 23.5248 27.1064C22.9146 27.1989 22.3464 27.2831 21.7792 27.3736C21.718 27.3834 21.6444 27.415 21.6073 27.4612C21.2272 27.9341 20.8534 28.4121 20.4614 28.9095C21.0895 29.483 21.722 30.0206 22.6139 30.2544ZM23.5887 25.2636C23.7177 25.6085 23.8467 25.9533 23.9828 26.317C24.8178 26.0516 25.6054 25.7747 26.213 25.1576C26.6264 24.7377 26.6314 24.3283 26.2217 23.9099C25.6092 23.2845 24.8143 23.0057 23.9957 22.7456C23.8447 23.1511 23.7455 23.5409 23.5605 23.8845C23.312 24.3462 23.2967 24.773 23.5887 25.2636ZM16.368 29.6732C16.6246 30.2497 16.8968 30.3969 17.4916 30.2283C18.3076 29.9969 18.9357 29.4708 19.5394 28.9028C19.1238 28.385 18.8022 27.7923 18.3097 27.4357C17.9583 27.1813 17.3772 27.2448 16.8988 27.165C16.8209 27.152 16.7367 27.1033 16.669 27.1215C16.5806 27.1451 16.4489 27.2062 16.4337 27.2733C16.2577 28.0492 16.1591 28.8311 16.368 29.6732ZM15.4121 26.1038C15.6117 26.1709 15.8113 26.2381 16.0099 26.3049C16.2329 25.7432 16.4432 25.22 16.6463 24.6939C16.6729 24.6248 16.6892 24.5309 16.6644 24.466C16.4486 23.9001 16.2222 23.3381 15.9901 22.7526C15.2084 23.0133 14.4514 23.2786 13.8563 23.8538C13.3798 24.3144 13.3486 24.7779 13.8613 25.188C14.3126 25.5489 14.858 25.7922 15.4121 26.1038ZM22.778 18.8272C21.8295 18.9951 21.1405 19.5843 20.4591 20.206C20.8369 20.6809 21.1866 21.1235 21.541 21.5624C21.5806 21.6114 21.6422 21.6641 21.7003 21.6735C22.3005 21.7698 22.9021 21.8576 23.5444 21.9539C23.7279 21.0961 23.8865 20.257 23.613 19.4039C23.4944 19.0343 23.2452 18.8133 22.778 18.8272ZM16.3293 21.305C16.3691 21.5208 16.409 21.7366 16.4502 21.9597C17.0964 21.8619 17.6857 21.774 18.2743 21.6814C18.3261 21.6732 18.3882 21.6459 18.4199 21.6067C18.7929 21.1458 19.1611 20.6809 19.5433 20.2012C18.9096 19.6371 18.2889 19.095 17.463 18.8786C16.8616 18.7211 16.4586 18.9202 16.3598 19.5335C16.2699 20.0918 16.326 20.6737 16.3293 21.305ZM20.4265 27.447C20.0285 27.447 19.6305 27.447 19.141 27.447C19.4621 27.8238 19.7188 28.1251 20.005 28.4611C20.2975 28.1072 20.5486 27.8032 20.8435 27.4464C20.6648 27.4464 20.5754 27.4464 20.4265 27.447ZM22.6658 23.3332C22.7413 23.4644 22.8167 23.5956 22.9435 23.816C23.111 23.3531 23.2441 22.9852 23.3927 22.5745C22.9324 22.4945 22.5458 22.4272 22.0938 22.3486C22.3041 22.7087 22.4734 22.9986 22.6658 23.3332ZM17.6152 22.4034C17.2963 22.4602 16.9775 22.5171 16.6104 22.5825C16.7596 22.9991 16.8937 23.3735 17.0527 23.8178C17.3504 23.3007 17.6087 22.852 17.8939 22.3565C17.7731 22.3766 17.7189 22.3857 17.6152 22.4034ZM22.9574 25.3935C22.6861 25.8084 22.4149 26.2232 22.1436 26.638C22.1666 26.6587 22.1896 26.6793 22.2126 26.7C22.5856 26.6295 22.9586 26.559 23.373 26.4807C23.2342 26.1019 23.1106 25.7649 22.9574 25.3935ZM17.3448 25.7983C17.2572 25.6528 17.1697 25.5072 17.0472 25.3037C16.8949 25.7349 16.7697 26.0892 16.6304 26.4835C17.0659 26.5609 17.4322 26.626 17.8668 26.7033C17.6718 26.3675 17.5194 26.1051 17.3448 25.7983ZM19.594 21.6065C19.9691 21.6065 20.3441 21.6065 20.809 21.6065C20.5073 21.2514 20.2706 20.9728 19.9993 20.6535C19.7279 20.976 19.4902 21.2585 19.2113 21.5901C19.3793 21.599 19.4563 21.603 19.594 21.6065Z" fill="#4CBEDB"/>
<path d="M9.00296 34.7047C6.47796 34.7047 3.98694 34.7055 1.49592 34.703C1.30437 34.7028 1.11029 34.6944 0.921765 34.6633C0.135648 34.5334 -0.187428 33.959 0.108123 33.219C0.170612 33.0625 0.257288 32.9147 0.342341 32.7684C6.49525 22.1862 12.6486 11.6043 18.8059 1.02459C18.9526 0.77256 19.1162 0.519574 19.3189 0.313252C19.727 -0.102061 20.2597 -0.102995 20.6774 0.302049C20.853 0.472352 20.9973 0.684125 21.1213 0.897157C27.3071 11.5254 33.4895 22.1557 39.6696 32.7873C39.7767 32.9715 39.8757 33.1664 39.9398 33.3685C40.138 33.9928 39.8356 34.5136 39.1956 34.6431C38.954 34.692 38.7013 34.7022 38.4536 34.7023C28.648 34.7051 18.8425 34.7047 9.00296 34.7047ZM27.1664 15.4091C27.1576 15.4211 27.1487 15.4331 27.1399 15.4452C27.1627 15.4316 27.1854 15.4181 27.1593 15.3878C24.7685 11.2828 22.3778 7.1777 19.9655 3.0357C17.8798 6.67753 15.8143 10.284 13.7488 13.8905C13.7674 13.9081 13.786 13.9258 13.8047 13.9434C14.8213 13.4714 15.838 12.9994 16.8809 12.5151C17.5748 13.9046 18.2555 15.2678 18.9544 16.6671C20.0647 14.9672 21.1439 13.3149 22.2351 11.6443C22.3685 11.7441 22.4774 11.8221 22.5826 11.9047C24.0239 13.0356 25.4636 14.1685 26.9082 15.2951C26.9886 15.3578 27.1083 15.3701 27.1664 15.4091ZM15.6979 29.5371C15.9544 30.66 16.625 31.1118 17.662 30.8218C17.9951 30.7287 18.3257 30.58 18.6166 30.3931C19.0988 30.0832 19.5479 29.7219 20.0297 29.3684C20.0962 29.4263 20.1802 29.4994 20.2641 29.5725C20.856 30.0889 21.4795 30.5561 22.2409 30.7968C23.3006 31.132 24.1102 30.6664 24.2826 29.5662C24.3639 29.0481 24.3366 28.5084 24.3152 27.9803C24.3008 27.6261 24.2103 27.275 24.1536 26.9208C24.2947 26.8738 24.4021 26.8394 24.5086 26.8022C25.2169 26.5549 25.905 26.2671 26.4768 25.7632C27.3777 24.969 27.3717 24.0637 26.46 23.2807C25.8828 22.785 25.1972 22.4931 24.4868 22.2501C24.3739 22.2114 24.264 22.164 24.1509 22.1199C24.1948 21.8975 24.2386 21.7104 24.2678 21.521C24.3874 20.7448 24.4625 19.9665 24.1983 19.2043C23.9288 18.4267 23.302 18.0401 22.5264 18.2626C22.0039 18.4126 21.5036 18.6747 21.0301 18.9499C20.6544 19.1683 20.3345 19.4827 19.9832 19.7597C19.9029 19.6883 19.8279 19.6202 19.7514 19.5538C19.1584 19.0398 18.5382 18.5688 17.7785 18.3222C16.7231 17.9794 15.9521 18.4033 15.7267 19.4927C15.643 19.8969 15.6291 20.3245 15.6477 20.7385C15.6687 21.2069 15.7621 21.672 15.8253 22.1486C15.6999 22.1927 15.5831 22.233 15.4667 22.2746C14.6514 22.566 13.8595 22.9014 13.2731 23.5744C12.7332 24.1941 12.7434 24.8846 13.2881 25.5033C13.7735 26.0546 14.4082 26.3741 15.0758 26.6388C15.3353 26.7417 15.5994 26.8332 15.8653 26.9313C15.6728 27.7907 15.5414 28.6267 15.6979 29.5371Z" fill="#374650"/>
<path d="M18.6226 24.803C18.5225 24.0172 18.9058 23.4306 19.6005 23.2666C20.2046 23.124 20.8526 23.4775 21.074 24.0704C21.3232 24.7378 20.9713 25.4908 20.301 25.7246C19.5837 25.9748 18.884 25.5998 18.6226 24.803Z" fill="#4DBFDC"/>
</svg>
