<svg width="37" height="32" viewBox="0 0 37 32" fill="none" xmlns="http://www.w3.org/2000/svg">
<path d="M8.30129 31.9999C5.97309 31.9999 3.67621 32.0007 1.37933 31.9983C1.20271 31.9981 1.02375 31.9904 0.849925 31.9617C0.125076 31.8419 -0.17282 31.3123 0.0996957 30.63C0.157315 30.4857 0.237236 30.3494 0.31566 30.2145C5.98903 20.4571 11.6628 10.6999 17.3402 0.94474C17.4754 0.712348 17.6263 0.479079 17.8133 0.288838C18.1896 -0.0941062 18.6807 -0.0949676 19.0659 0.278508C19.2278 0.435538 19.3609 0.630806 19.4752 0.827234C25.1789 10.6272 30.8794 20.429 36.5779 30.2319C36.6766 30.4018 36.7679 30.5814 36.827 30.7678C37.0097 31.3435 36.7309 31.8237 36.1408 31.9431C35.918 31.9881 35.685 31.9976 35.4566 31.9977C26.4153 32.0003 17.3739 31.9999 8.30129 31.9999ZM25.0491 14.2082C25.041 14.2192 25.0328 14.2303 25.0247 14.2414C25.0457 14.2289 25.0667 14.2164 25.0426 14.1885C22.8381 10.4034 20.6337 6.61829 18.4094 2.79911C16.4863 6.1571 14.5817 9.48252 12.6772 12.8079C12.6944 12.8242 12.7116 12.8404 12.7288 12.8567C13.6662 12.4214 14.6036 11.9862 15.5652 11.5397C16.205 12.8209 16.8328 14.0779 17.4771 15.3681C18.5009 13.8007 19.496 12.2771 20.5021 10.7368C20.6252 10.8288 20.7255 10.9007 20.8226 10.9768C22.1515 12.0196 23.479 13.0642 24.8111 14.103C24.8852 14.1608 24.9955 14.1722 25.0491 14.2082ZM14.4745 27.2351C14.711 28.2704 15.3293 28.687 16.2855 28.4196C16.5926 28.3337 16.8975 28.1967 17.1657 28.0243C17.6103 27.7386 18.0244 27.4054 18.4687 27.0795C18.5299 27.1329 18.6074 27.2002 18.6848 27.2677C19.2306 27.7438 19.8055 28.1746 20.5075 28.3966C21.4846 28.7057 22.2311 28.2764 22.3901 27.2618C22.465 26.7841 22.4399 26.2865 22.4201 25.7996C22.4068 25.473 22.3234 25.1493 22.2711 24.8227C22.4012 24.7793 22.5003 24.7476 22.5985 24.7133C23.2516 24.4853 23.8861 24.2199 24.4132 23.7553C25.244 23.023 25.2384 22.1882 24.3977 21.4662C23.8656 21.0092 23.2334 20.7401 22.5784 20.516C22.4742 20.4803 22.3729 20.4366 22.2687 20.396C22.3091 20.1908 22.3495 20.0183 22.3764 19.8437C22.4867 19.128 22.5559 18.4104 22.3123 17.7076C22.0638 16.9906 21.4859 16.6341 20.7708 16.8393C20.289 16.9775 19.8277 17.2192 19.3911 17.473C19.0447 17.6743 18.7497 17.9643 18.4257 18.2197C18.3517 18.1539 18.2826 18.091 18.212 18.0298C17.6652 17.5559 17.0934 17.1216 16.3929 16.8942C15.4197 16.5782 14.7089 16.969 14.501 17.9735C14.4238 18.3462 14.411 18.7404 14.4281 19.1222C14.4475 19.554 14.5336 19.9829 14.5919 20.4224C14.4763 20.463 14.3686 20.5003 14.2613 20.5386C13.5095 20.8073 12.7793 21.1166 12.2387 21.7371C11.7408 22.3085 11.7502 22.9452 12.2525 23.5156C12.7001 24.0239 13.2853 24.3185 13.9008 24.5626C14.1401 24.6575 14.3836 24.7419 14.6288 24.8324C14.4513 25.6247 14.3301 26.3956 14.4745 27.2351Z" fill="#374650"/>
</svg>
