<svg version="1.1" id="Layer_1" xmlns="http://www.w3.org/2000/svg" xmlns:xlink="http://www.w3.org/1999/xlink" x="0px" y="0px"
	 width="100%" viewBox="0 0 758 753" enable-background="new 0 0 758 753" xml:space="preserve">
<path fill="#35454F" opacity="1.000000" stroke="none" 
	d="
M736.000000,754.000000 
	C498.971954,754.000000 261.943939,754.000000 24.478561,753.645142 
	C23.302931,752.663391 22.650328,751.873047 21.813370,751.434387 
	C10.318836,745.409790 4.903048,736.180054 4.910193,722.966125 
	C5.034578,492.968384 5.084178,262.970398 4.800304,32.972897 
	C4.782371,18.443317 19.478636,3.789270 33.859577,3.806341 
	C264.690430,4.080336 495.521759,4.073102 726.352661,3.821545 
	C740.578613,3.806042 755.227173,18.401739 755.185791,32.685154 
	C754.853638,147.349777 755.000000,262.015808 755.000000,376.681396 
	C755.000000,493.013641 754.992615,609.345886 755.014160,725.678101 
	C755.015930,734.980469 751.033630,742.159790 743.827332,747.768921 
	C741.195923,749.817200 738.607849,751.921326 736.000000,754.000000 
M34.999462,451.500000 
	C34.999462,542.249451 34.999462,632.998840 34.999462,723.690063 
	C265.329315,723.690063 495.038208,723.690063 724.690186,723.690063 
	C724.690186,493.670776 724.690186,263.961914 724.690186,34.309738 
	C494.670868,34.309738 264.961975,34.309738 34.999462,34.309738 
	C34.999462,173.246567 34.999462,311.873291 34.999462,451.500000 
z"/>
<path fill="#000000" opacity="1.000000" stroke="none" 
	d="
M736.468689,754.000000 
	C738.607849,751.921326 741.195923,749.817200 743.827332,747.768921 
	C751.033630,742.159790 755.015930,734.980469 755.014160,725.678101 
	C754.992615,609.345886 755.000000,493.013641 755.000000,376.681396 
	C755.000000,262.015808 754.853638,147.349777 755.185791,32.685154 
	C755.227173,18.401739 740.578613,3.806042 726.352661,3.821545 
	C495.521759,4.073102 264.690430,4.080336 33.859577,3.806341 
	C19.478636,3.789270 4.782371,18.443317 4.800304,32.972897 
	C5.084178,262.970398 5.034578,492.968384 4.910193,722.966125 
	C4.903048,736.180054 10.318836,745.409790 21.813370,751.434387 
	C22.650328,751.873047 23.302931,752.663391 24.020607,753.645142 
	C16.334782,754.000000 8.669565,754.000000 1.003260,754.000000 
	C1.002174,503.048889 1.002174,252.097778 1.002174,1.073334 
	C253.570007,1.073334 506.140045,1.073334 758.855042,1.073334 
	C758.855042,251.999939 758.855042,502.999969 758.855042,754.000000 
	C751.600708,754.000000 744.269104,754.000000 736.468689,754.000000 
z"/>
<path fill="#FFFFFF" opacity="1.000000" stroke="none" 
	d="
M34.999462,451.000000 
	C34.999462,311.873291 34.999462,173.246567 34.999462,34.309738 
	C264.961975,34.309738 494.670868,34.309738 724.690186,34.309738 
	C724.690186,263.961914 724.690186,493.670776 724.690186,723.690063 
	C495.038208,723.690063 265.329315,723.690063 34.999462,723.690063 
	C34.999462,632.998840 34.999462,542.249451 34.999462,451.000000 
M218.499908,577.813538 
	C362.792694,577.813538 507.085510,577.819641 651.378296,577.778503 
	C655.023132,577.777466 658.742554,577.626282 662.298096,576.906860 
	C671.715637,575.001343 676.165222,567.337769 673.249390,558.151123 
	C672.305176,555.176331 670.849243,552.308594 669.273376,549.597717 
	C578.329224,393.150116 487.353790,236.720657 396.326752,80.321266 
	C394.502258,77.186417 392.378723,74.070084 389.794495,71.563995 
	C383.648285,65.603607 375.809357,65.617355 369.803680,71.728859 
	C366.820129,74.764969 364.412445,78.487770 362.253967,82.196571 
	C271.647614,237.881165 181.097885,393.598694 90.555130,549.320251 
	C89.303535,551.472839 88.028061,553.648254 87.108498,555.950745 
	C82.759346,566.840088 87.513542,575.292847 99.081604,577.203857 
	C101.855759,577.662109 104.711853,577.785828 107.530540,577.788635 
	C144.186951,577.825806 180.843430,577.813477 218.499908,577.813538 
M324.917847,626.556763 
	C320.754456,619.741211 316.632507,612.899597 312.387878,606.135010 
	C311.660583,604.976074 310.460571,603.367065 309.392120,603.297363 
	C304.647675,602.987976 299.871613,603.163330 295.179840,603.163330 
	C295.179840,629.119690 295.179840,654.380127 295.179840,679.598022 
	C300.488312,679.598022 305.517853,679.598022 310.963776,679.598022 
	C310.963776,663.318726 310.963776,647.442688 310.963776,630.126099 
	C312.560303,632.684326 313.411957,634.022644 314.237915,635.376526 
	C322.643555,649.155212 331.019135,662.952332 339.490143,676.690674 
	C340.282562,677.975769 341.605743,679.742249 342.793365,679.832825 
	C347.532745,680.194641 352.315979,679.982056 356.888184,679.982056 
	C356.888184,654.043152 356.888184,628.786377 356.888184,603.480225 
	C351.681061,603.480225 346.805481,603.480225 341.239075,603.480225 
	C341.239075,619.769958 341.239075,635.722473 341.239075,651.674988 
	C340.931549,651.712524 340.623993,651.750061 340.316467,651.787598 
	C335.296692,643.592163 330.276886,635.396729 324.917847,626.556763 
M644.445557,662.026489 
	C647.018799,667.059448 649.544983,672.117493 652.202759,677.105469 
	C652.776245,678.181885 653.785706,679.775818 654.659424,679.819214 
	C659.833557,680.075867 665.026917,679.945862 670.971252,679.945862 
	C665.077332,668.742859 659.693481,658.509399 654.238708,648.141113 
	C655.051636,647.578491 655.561523,647.194641 656.100464,646.857239 
	C665.901855,640.719849 669.418762,632.425293 667.114685,620.862854 
	C665.292114,611.716492 658.196228,604.900635 647.268250,604.119751 
	C635.391846,603.271057 623.407959,603.927246 611.192993,603.927246 
	C611.192993,628.936340 611.192993,654.302734 611.192993,679.780273 
	C616.400635,679.780273 621.323303,679.780273 626.759277,679.780273 
	C626.759277,670.501404 626.759277,661.432190 626.759277,652.444031 
	C638.782776,650.927490 638.782959,650.927368 643.901672,660.904053 
	C643.977417,661.051697 644.029236,661.211670 644.445557,662.026489 
M145.956055,664.388123 
	C153.172501,651.453735 153.363556,637.887329 148.575027,624.335693 
	C144.907852,613.957581 137.227707,606.538391 126.367493,604.737915 
	C115.517426,602.939209 104.325287,603.203918 93.125610,602.554932 
	C93.125610,629.027100 93.125610,654.286560 93.125610,679.953125 
	C101.619682,679.953125 109.915054,680.212769 118.187721,679.890320 
	C129.663269,679.442993 139.050369,674.761047 145.956055,664.388123 
M513.908264,667.490112 
	C513.908264,671.582397 513.908264,675.674683 513.908264,679.780029 
	C531.302612,679.780029 548.051147,679.780029 564.836548,679.780029 
	C564.836548,675.524109 564.836548,671.507996 564.836548,667.074829 
	C553.018982,667.074829 541.606201,667.074829 530.145630,667.074829 
	C530.145630,660.111206 530.145630,653.580261 530.145630,646.612427 
	C540.263000,646.612427 550.010254,646.612427 559.646057,646.612427 
	C559.646057,642.270996 559.646057,638.383667 559.646057,634.030518 
	C549.530762,634.030518 539.795044,634.030518 530.078003,634.030518 
	C530.078003,627.815918 530.078003,622.086426 530.078003,615.825439 
	C541.926514,615.825439 553.477661,615.825439 564.828491,615.825439 
	C564.828491,611.353333 564.828491,607.424805 564.828491,603.402466 
	C547.783325,603.402466 531.058838,603.402466 513.908264,603.402466 
	C513.908264,624.614014 513.908264,645.553162 513.908264,667.490112 
M214.770096,654.529236 
	C214.770096,652.091187 214.770096,649.653137 214.770096,646.771973 
	C225.081497,646.771973 234.824280,646.771973 244.740021,646.771973 
	C244.740021,642.428406 244.740021,638.541504 244.740021,634.188965 
	C234.716766,634.188965 224.975555,634.188965 215.008942,634.188965 
	C215.008942,627.984741 215.008942,622.249023 215.008942,615.979248 
	C226.741882,615.979248 238.298584,615.979248 249.726410,615.979248 
	C249.726410,611.403198 249.726410,607.369629 249.726410,603.488647 
	C232.577744,603.488647 215.852783,603.488647 199.145569,603.488647 
	C199.145569,629.096436 199.145569,654.341980 199.145569,679.697876 
	C216.261230,679.697876 233.137894,679.697876 249.928986,679.697876 
	C249.928986,675.463196 249.928986,671.544189 249.928986,667.048157 
	C238.078583,667.048157 226.532425,667.048157 214.770096,667.048157 
	C214.770096,662.811890 214.770096,659.163330 214.770096,654.529236 
M423.807770,667.782715 
	C425.202209,671.842957 426.596619,675.903137 427.951050,679.846924 
	C433.699677,679.846924 439.007965,679.846924 444.568787,679.846924 
	C453.416534,654.422058 462.241547,629.062622 471.266327,603.129150 
	C466.716553,603.129150 462.735107,603.459229 458.834442,603.039246 
	C454.681610,602.592041 453.123505,604.208069 452.009674,608.100037 
	C447.100800,625.252869 441.830811,642.302429 436.244751,660.875305 
	C430.186554,640.729431 424.557617,622.010986 418.994995,603.513123 
	C413.100342,603.513123 407.571991,603.513123 401.478455,603.513123 
	C408.940826,625.041931 416.222870,646.050476 423.807770,667.782715 
z"/>
<path fill="#374650" opacity="1.000000" stroke="none" 
	d="
M217.999893,577.813538 
	C180.843430,577.813477 144.186951,577.825806 107.530540,577.788635 
	C104.711853,577.785828 101.855759,577.662109 99.081604,577.203857 
	C87.513542,575.292847 82.759346,566.840088 87.108498,555.950745 
	C88.028061,553.648254 89.303535,551.472839 90.555130,549.320251 
	C181.097885,393.598694 271.647614,237.881165 362.253967,82.196571 
	C364.412445,78.487770 366.820129,74.764969 369.803680,71.728859 
	C375.809357,65.617355 383.648285,65.603607 389.794495,71.563995 
	C392.378723,74.070084 394.502258,77.186417 396.326752,80.321266 
	C487.353790,236.720657 578.329224,393.150116 669.273376,549.597717 
	C670.849243,552.308594 672.305176,555.176331 673.249390,558.151123 
	C676.165222,567.337769 671.715637,575.001343 662.298096,576.906860 
	C658.742554,577.626282 655.023132,577.777466 651.378296,577.778503 
	C507.085510,577.819641 362.792694,577.813538 217.999893,577.813538 
M485.282562,293.871002 
	C485.152649,294.047760 485.022766,294.224487 484.892853,294.401276 
	C485.227844,294.202209 485.562836,294.003174 485.177917,293.557617 
	C449.996887,233.149887 414.815887,172.742157 379.318329,111.790924 
	C348.625916,165.382004 318.231262,218.453186 287.836578,271.524353 
	C288.110748,271.783539 288.384918,272.042725 288.659088,272.301910 
	C303.619385,265.356079 318.579712,258.410278 333.926544,251.285004 
	C344.137848,271.731964 354.155640,291.791412 364.438965,312.382599 
	C380.777466,287.368195 396.659119,263.053223 412.715942,238.470078 
	C414.679932,239.938629 416.281403,241.086365 417.830017,242.301529 
	C439.038818,258.943695 460.225311,275.614441 481.483521,292.193207 
	C482.666473,293.115814 484.427521,293.297211 485.282562,293.871002 
M316.519226,501.770874 
	C320.293732,518.294495 330.162170,524.942688 345.421570,520.675415 
	C350.323273,519.304688 355.188721,517.116943 359.469086,514.366577 
	C366.565094,509.807037 373.173828,504.489105 380.263702,499.288330 
	C381.241577,500.139954 382.477661,501.214996 383.712158,502.291840 
	C392.422699,509.889801 401.598175,516.764954 412.801270,520.308105 
	C428.396240,525.240295 440.308746,518.388916 442.846863,502.198090 
	C444.042053,494.573822 443.640991,486.632965 443.325500,478.861481 
	C443.113922,473.649567 441.782135,468.483154 440.947510,463.271027 
	C443.023773,462.578613 444.605042,462.072388 446.172058,461.525330 
	C456.595428,457.886444 466.721100,453.651093 475.134247,446.235565 
	C488.392670,434.549255 488.303741,421.226196 474.887115,409.704254 
	C466.394073,402.410522 456.304840,398.115051 445.851105,394.538635 
	C444.189697,393.970245 442.572693,393.272217 440.908630,392.623779 
	C441.554169,389.349792 442.199219,386.596741 442.628479,383.810394 
	C444.388123,372.387817 445.493530,360.934906 441.605896,349.719421 
	C437.639313,338.276215 428.416962,332.586639 417.003418,335.861664 
	C409.314148,338.068054 401.951965,341.925110 394.984741,345.974976 
	C389.456055,349.188660 384.748749,353.815430 379.578339,357.892334 
	C378.396637,356.841339 377.293701,355.838226 376.167389,354.862091 
	C367.440826,347.298767 358.314606,340.367310 347.136047,336.737610 
	C331.604736,331.694489 320.260101,337.932373 316.941986,353.962982 
	C315.710846,359.910797 315.505859,366.202820 315.779633,372.295380 
	C316.089264,379.187317 317.462830,386.031464 318.393646,393.046051 
	C316.548828,393.693756 314.829865,394.288055 313.117249,394.900085 
	C301.119110,399.188019 289.465302,404.123749 280.837189,414.026825 
	C272.891602,423.146454 273.041534,433.306976 281.058167,442.411285 
	C288.201080,450.523315 297.540497,455.224731 307.364624,459.120331 
	C311.183350,460.634583 315.068634,461.981079 318.982025,463.425568 
	C316.149536,476.070831 314.215546,488.372711 316.519226,501.770874 
z"/>
<path fill="#384751" opacity="1.000000" stroke="none" 
	d="
M325.087463,626.879028 
	C330.276886,635.396729 335.296692,643.592163 340.316467,651.787598 
	C340.623993,651.750061 340.931549,651.712524 341.239075,651.674988 
	C341.239075,635.722473 341.239075,619.769958 341.239075,603.480225 
	C346.805481,603.480225 351.681061,603.480225 356.888184,603.480225 
	C356.888184,628.786377 356.888184,654.043152 356.888184,679.982056 
	C352.315979,679.982056 347.532745,680.194641 342.793365,679.832825 
	C341.605743,679.742249 340.282562,677.975769 339.490143,676.690674 
	C331.019135,662.952332 322.643555,649.155212 314.237915,635.376526 
	C313.411957,634.022644 312.560303,632.684326 310.963776,630.126099 
	C310.963776,647.442688 310.963776,663.318726 310.963776,679.598022 
	C305.517853,679.598022 300.488312,679.598022 295.179840,679.598022 
	C295.179840,654.380127 295.179840,629.119690 295.179840,603.163330 
	C299.871613,603.163330 304.647675,602.987976 309.392120,603.297363 
	C310.460571,603.367065 311.660583,604.976074 312.387878,606.135010 
	C316.632507,612.899597 320.754456,619.741211 325.087463,626.879028 
z"/>
<path fill="#394852" opacity="1.000000" stroke="none" 
	d="
M644.268921,661.696167 
	C644.029236,661.211670 643.977417,661.051697 643.901672,660.904053 
	C638.782959,650.927368 638.782776,650.927490 626.759277,652.444031 
	C626.759277,661.432190 626.759277,670.501404 626.759277,679.780273 
	C621.323303,679.780273 616.400635,679.780273 611.192993,679.780273 
	C611.192993,654.302734 611.192993,628.936340 611.192993,603.927246 
	C623.407959,603.927246 635.391846,603.271057 647.268250,604.119751 
	C658.196228,604.900635 665.292114,611.716492 667.114685,620.862854 
	C669.418762,632.425293 665.901855,640.719849 656.100464,646.857239 
	C655.561523,647.194641 655.051636,647.578491 654.238708,648.141113 
	C659.693481,658.509399 665.077332,668.742859 670.971252,679.945862 
	C665.026917,679.945862 659.833557,680.075867 654.659424,679.819214 
	C653.785706,679.775818 652.776245,678.181885 652.202759,677.105469 
	C649.544983,672.117493 647.018799,667.059448 644.268921,661.696167 
M633.494019,639.037659 
	C636.471375,638.928650 639.491089,639.098328 642.417175,638.652710 
	C648.515076,637.724060 652.030640,633.534790 651.920410,627.821106 
	C651.793396,621.237427 648.280151,616.802490 642.013855,616.249695 
	C637.121216,615.818115 632.160034,616.163269 626.998901,616.163269 
	C626.998901,623.829346 626.998901,631.190063 626.998901,639.037659 
	C628.963318,639.037659 630.746643,639.037659 633.494019,639.037659 
z"/>
<path fill="#3A4852" opacity="1.000000" stroke="none" 
	d="
M145.767609,664.700562 
	C139.050369,674.761047 129.663269,679.442993 118.187721,679.890320 
	C109.915054,680.212769 101.619682,679.953125 93.125610,679.953125 
	C93.125610,654.286560 93.125610,629.027100 93.125610,602.554932 
	C104.325287,603.203918 115.517426,602.939209 126.367493,604.737915 
	C137.227707,606.538391 144.907852,613.957581 148.575027,624.335693 
	C153.363556,637.887329 153.172501,651.453735 145.767609,664.700562 
M112.536903,616.017151 
	C109.382179,615.446411 108.670441,616.886597 108.699348,619.873901 
	C108.842552,634.672791 108.757118,649.473694 108.787903,664.273865 
	C108.789825,665.199158 109.095047,666.123779 109.283844,667.187805 
	C111.693779,667.187805 113.847130,667.237000 115.997627,667.179565 
	C127.001770,666.885742 133.615356,661.051025 134.913605,650.031433 
	C135.435318,645.603088 135.471878,641.062134 135.196243,636.605469 
	C134.278641,621.768433 128.213135,616.128052 112.536903,616.017151 
z"/>
<path fill="#3A4953" opacity="1.000000" stroke="none" 
	d="
M513.908264,666.991211 
	C513.908264,645.553162 513.908264,624.614014 513.908264,603.402466 
	C531.058838,603.402466 547.783325,603.402466 564.828491,603.402466 
	C564.828491,607.424805 564.828491,611.353333 564.828491,615.825439 
	C553.477661,615.825439 541.926514,615.825439 530.078003,615.825439 
	C530.078003,622.086426 530.078003,627.815918 530.078003,634.030518 
	C539.795044,634.030518 549.530762,634.030518 559.646057,634.030518 
	C559.646057,638.383667 559.646057,642.270996 559.646057,646.612427 
	C550.010254,646.612427 540.263000,646.612427 530.145630,646.612427 
	C530.145630,653.580261 530.145630,660.111206 530.145630,667.074829 
	C541.606201,667.074829 553.018982,667.074829 564.836548,667.074829 
	C564.836548,671.507996 564.836548,675.524109 564.836548,679.780029 
	C548.051147,679.780029 531.302612,679.780029 513.908264,679.780029 
	C513.908264,675.674683 513.908264,671.582397 513.908264,666.991211 
z"/>
<path fill="#3A4953" opacity="1.000000" stroke="none" 
	d="
M214.770096,655.021973 
	C214.770096,659.163330 214.770096,662.811890 214.770096,667.048157 
	C226.532425,667.048157 238.078583,667.048157 249.928986,667.048157 
	C249.928986,671.544189 249.928986,675.463196 249.928986,679.697876 
	C233.137894,679.697876 216.261230,679.697876 199.145569,679.697876 
	C199.145569,654.341980 199.145569,629.096436 199.145569,603.488647 
	C215.852783,603.488647 232.577744,603.488647 249.726410,603.488647 
	C249.726410,607.369629 249.726410,611.403198 249.726410,615.979248 
	C238.298584,615.979248 226.741882,615.979248 215.008942,615.979248 
	C215.008942,622.249023 215.008942,627.984741 215.008942,634.188965 
	C224.975555,634.188965 234.716766,634.188965 244.740021,634.188965 
	C244.740021,638.541504 244.740021,642.428406 244.740021,646.771973 
	C234.824280,646.771973 225.081497,646.771973 214.770096,646.771973 
	C214.770096,649.653137 214.770096,652.091187 214.770096,655.021973 
z"/>
<path fill="#3A4852" opacity="1.000000" stroke="none" 
	d="
M423.656372,667.420898 
	C416.222870,646.050476 408.940826,625.041931 401.478455,603.513123 
	C407.571991,603.513123 413.100342,603.513123 418.994995,603.513123 
	C424.557617,622.010986 430.186554,640.729431 436.244751,660.875305 
	C441.830811,642.302429 447.100800,625.252869 452.009674,608.100037 
	C453.123505,604.208069 454.681610,602.592041 458.834442,603.039246 
	C462.735107,603.459229 466.716553,603.129150 471.266327,603.129150 
	C462.241547,629.062622 453.416534,654.422058 444.568787,679.846924 
	C439.007965,679.846924 433.699677,679.846924 427.951050,679.846924 
	C426.596619,675.903137 425.202209,671.842957 423.656372,667.420898 
z"/>
<path fill="#FEFEFE" opacity="1.000000" stroke="none" 
	d="
M485.919495,293.823608 
	C484.427521,293.297211 482.666473,293.115814 481.483521,292.193207 
	C460.225311,275.614441 439.038818,258.943695 417.830017,242.301529 
	C416.281403,241.086365 414.679932,239.938629 412.715942,238.470078 
	C396.659119,263.053223 380.777466,287.368195 364.438965,312.382599 
	C354.155640,291.791412 344.137848,271.731964 333.926544,251.285004 
	C318.579712,258.410278 303.619385,265.356079 288.659088,272.301910 
	C288.384918,272.042725 288.110748,271.783539 287.836578,271.524353 
	C318.231262,218.453186 348.625916,165.382004 379.318329,111.790924 
	C414.815887,172.742157 449.996887,233.149887 485.493408,293.699982 
	C485.808899,293.842346 485.919495,293.823608 485.919495,293.823608 
z"/>
<path fill="#4CBEDB" opacity="1.000000" stroke="none" 
	d="
M316.413330,501.355896 
	C314.215546,488.372711 316.149536,476.070831 318.982025,463.425568 
	C315.068634,461.981079 311.183350,460.634583 307.364624,459.120331 
	C297.540497,455.224731 288.201080,450.523315 281.058167,442.411285 
	C273.041534,433.306976 272.891602,423.146454 280.837189,414.026825 
	C289.465302,404.123749 301.119110,399.188019 313.117249,394.900085 
	C314.829865,394.288055 316.548828,393.693756 318.393646,393.046051 
	C317.462830,386.031464 316.089264,379.187317 315.779633,372.295380 
	C315.505859,366.202820 315.710846,359.910797 316.941986,353.962982 
	C320.260101,337.932373 331.604736,331.694489 347.136047,336.737610 
	C358.314606,340.367310 367.440826,347.298767 376.167389,354.862091 
	C377.293701,355.838226 378.396637,356.841339 379.578339,357.892334 
	C384.748749,353.815430 389.456055,349.188660 394.984741,345.974976 
	C401.951965,341.925110 409.314148,338.068054 417.003418,335.861664 
	C428.416962,332.586639 437.639313,338.276215 441.605896,349.719421 
	C445.493530,360.934906 444.388123,372.387817 442.628479,383.810394 
	C442.199219,386.596741 441.554169,389.349792 440.908630,392.623779 
	C442.572693,393.272217 444.189697,393.970245 445.851105,394.538635 
	C456.304840,398.115051 466.394073,402.410522 474.887115,409.704254 
	C488.303741,421.226196 488.392670,434.549255 475.134247,446.235565 
	C466.721100,453.651093 456.595428,457.886444 446.172058,461.525330 
	C444.605042,462.072388 443.023773,462.578613 440.947510,463.271027 
	C441.782135,468.483154 443.113922,473.649567 443.325500,478.861481 
	C443.640991,486.632965 444.042053,494.573822 442.846863,502.198090 
	C440.308746,518.388916 428.396240,525.240295 412.801270,520.308105 
	C401.598175,516.764954 392.422699,509.889801 383.712158,502.291840 
	C382.477661,501.214996 381.241577,500.139954 380.263702,499.288330 
	C373.173828,504.489105 366.565094,509.807037 359.469086,514.366577 
	C355.188721,517.116943 350.323273,519.304688 345.421570,520.675415 
	C330.162170,524.942688 320.293732,518.294495 316.413330,501.355896 
M358.810944,458.897980 
	C360.310822,459.737000 361.796204,461.272003 363.312927,461.303558 
	C374.273346,461.531921 385.243622,461.599030 396.201233,461.329132 
	C397.928162,461.286621 400.252106,459.677155 401.200897,458.121704 
	C406.563477,449.330597 411.715515,440.402374 416.611542,431.343689 
	C417.442535,429.806274 417.389679,427.023926 416.543030,425.472900 
	C411.450104,416.142639 406.121368,406.933380 400.567322,397.870056 
	C399.641479,396.359222 397.246643,394.924866 395.493927,394.879761 
	C385.040131,394.610535 374.571747,394.619537 364.118378,394.905090 
	C362.367371,394.952911 359.983337,396.387756 359.053497,397.897278 
	C353.565796,406.806183 348.258911,415.839111 343.301208,425.051025 
	C342.328827,426.857788 342.325806,430.074402 343.291595,431.885956 
	C348.056854,440.824249 353.298309,449.508636 358.810944,458.897980 
M418.291229,512.326538 
	C425.968048,513.568848 430.396545,511.634918 432.682037,505.062714 
	C437.239532,491.957123 434.788086,478.994293 431.694763,466.001801 
	C422.715515,467.362427 414.353882,468.601990 406.007019,469.933990 
	C405.106415,470.077728 404.024231,470.543427 403.478027,471.222931 
	C397.884094,478.182098 392.383545,485.216339 386.615906,492.535492 
	C395.858459,500.973938 405.166168,508.885529 418.291229,512.326538 
M432.634705,438.884003 
	C434.533447,443.958801 436.432220,449.033600 438.434326,454.384644 
	C450.722198,450.479279 462.311981,446.405396 471.252686,437.324188 
	C477.336731,431.144501 477.410217,425.121002 471.380493,418.963715 
	C462.367828,409.760345 450.671051,405.658051 438.623840,401.830231 
	C436.402740,407.797729 434.942566,413.533234 432.220612,418.589508 
	C428.563110,425.383667 428.338867,431.665131 432.634705,438.884003 
M326.380219,503.773468 
	C330.155273,512.257385 334.160919,514.423279 342.914124,511.941223 
	C354.921661,508.536316 364.164673,500.795380 373.048492,492.437073 
	C366.932159,484.817230 362.199951,476.094910 354.951996,470.847076 
	C349.782013,467.103760 341.229889,468.037903 334.190552,466.863647 
	C333.044495,466.672455 331.805817,465.956573 330.808228,466.223694 
	C329.507904,466.571869 327.569611,467.469635 327.345673,468.457336 
	C324.757019,479.875031 323.305511,491.381622 326.380219,503.773468 
M312.312775,451.247375 
	C315.250397,452.235565 318.188049,453.223724 321.110443,454.206787 
	C324.391296,445.942139 327.486664,438.242401 330.474182,430.501068 
	C330.866699,429.483948 331.106293,428.102020 330.741791,427.146545 
	C327.565033,418.818909 324.234375,410.549957 320.818634,401.933685 
	C309.315674,405.769348 298.176605,409.673981 289.419403,418.138397 
	C282.406616,424.916748 281.948029,431.737396 289.492096,437.771149 
	C296.133270,443.082825 304.159760,446.662506 312.312775,451.247375 
M420.705475,344.170013 
	C406.748505,346.640564 396.609100,355.310669 386.581665,364.458649 
	C392.140656,371.448090 397.287903,377.960571 402.502319,384.418762 
	C403.084930,385.140289 403.991241,385.916382 404.845947,386.053589 
	C413.678589,387.471558 422.531494,388.763336 431.983582,390.180908 
	C434.684143,377.557220 437.017883,365.210205 432.992310,352.656616 
	C431.247864,347.216644 427.579987,343.964447 420.705475,344.170013 
M325.809601,380.631683 
	C326.396179,383.807190 326.982758,386.982697 327.589264,390.266083 
	C337.098236,388.826874 345.770752,387.533661 354.432098,386.169739 
	C355.194489,386.049652 356.107269,385.647766 356.573425,385.071838 
	C362.063568,378.289154 367.481720,371.448242 373.105652,364.388184 
	C363.780640,356.087555 354.645752,348.109802 342.492462,344.926697 
	C333.642700,342.608826 327.712860,345.538940 326.259186,354.562683 
	C324.935486,362.779327 325.761932,371.342316 325.809601,380.631683 
M386.101990,471.013153 
	C380.245178,471.013153 374.388367,471.013153 367.185089,471.013153 
	C371.910065,476.558777 375.687805,480.992645 379.900238,485.936707 
	C384.204041,480.728333 387.899597,476.256073 392.239197,471.004395 
	C389.609375,471.004395 388.292999,471.004395 386.101990,471.013153 
M419.054749,410.477722 
	C420.164886,412.408020 421.274994,414.338348 423.140472,417.582092 
	C425.605469,410.770294 427.564697,405.356262 429.751587,399.312988 
	C422.977966,398.134888 417.288239,397.145325 410.636536,395.988434 
	C413.731445,401.287170 416.223450,405.553741 419.054749,410.477722 
M344.732819,396.794678 
	C340.040375,397.631165 335.347900,398.467682 329.947235,399.430420 
	C332.142090,405.560730 334.114838,411.070679 336.455811,417.609131 
	C340.836060,409.999359 344.636597,403.396729 348.833557,396.105347 
	C347.056763,396.401001 346.258636,396.533813 344.732819,396.794678 
M423.344696,440.795990 
	C419.353271,446.900330 415.361816,453.004639 411.370361,459.108978 
	C411.708801,459.412933 412.047241,459.716888 412.385681,460.020844 
	C417.874054,458.983704 423.362427,457.946533 429.461060,456.794067 
	C427.417969,451.220306 425.599854,446.260315 423.344696,440.795990 
M340.754089,446.752716 
	C339.465179,444.610809 338.176300,442.468903 336.374054,439.473846 
	C334.132568,445.819458 332.290955,451.032928 330.241547,456.834778 
	C336.649597,457.974304 342.040039,458.932861 348.434998,460.070068 
	C345.565308,455.128540 343.322815,451.266998 340.754089,446.752716 
M373.851288,385.068573 
	C379.370667,385.068573 384.890015,385.068573 391.730347,385.068573 
	C387.291107,379.843018 383.807800,375.742737 379.816101,371.043976 
	C375.822540,375.790466 372.324646,379.947784 368.219635,384.826752 
	C370.691986,384.957306 371.825745,385.017151 373.851288,385.068573 
z"/>
<path fill="#FEFEFE" opacity="1.000000" stroke="none" 
	d="
M485.853363,293.823242 
	C485.562836,294.003174 485.227844,294.202209 484.892853,294.401245 
	C485.022766,294.224487 485.152649,294.047760 485.601013,293.847290 
	C485.919495,293.823608 485.808899,293.842346 485.853363,293.823242 
z"/>
<path fill="#FDFDFD" opacity="1.000000" stroke="none" 
	d="
M633.012024,639.037659 
	C630.746643,639.037659 628.963318,639.037659 626.998901,639.037659 
	C626.998901,631.190063 626.998901,623.829346 626.998901,616.163269 
	C632.160034,616.163269 637.121216,615.818115 642.013855,616.249695 
	C648.280151,616.802490 651.793396,621.237427 651.920410,627.821106 
	C652.030640,633.534790 648.515076,637.724060 642.417175,638.652710 
	C639.491089,639.098328 636.471375,638.928650 633.012024,639.037659 
z"/>
<path fill="#FDFEFE" opacity="1.000000" stroke="none" 
	d="
M113.006714,616.017212 
	C128.213135,616.128052 134.278641,621.768433 135.196243,636.605469 
	C135.471878,641.062134 135.435318,645.603088 134.913605,650.031433 
	C133.615356,661.051025 127.001770,666.885742 115.997627,667.179565 
	C113.847130,667.237000 111.693779,667.187805 109.283844,667.187805 
	C109.095047,666.123779 108.789825,665.199158 108.787903,664.273865 
	C108.757118,649.473694 108.842552,634.672791 108.699348,619.873901 
	C108.670441,616.886597 109.382179,615.446411 113.006714,616.017212 
z"/>
<path fill="#364751" opacity="1.000000" stroke="none" 
	d="
M358.591370,458.590302 
	C353.298309,449.508636 348.056854,440.824249 343.291595,431.885956 
	C342.325806,430.074402 342.328827,426.857788 343.301208,425.051025 
	C348.258911,415.839111 353.565796,406.806183 359.053497,397.897278 
	C359.983337,396.387756 362.367371,394.952911 364.118378,394.905090 
	C374.571747,394.619537 385.040131,394.610535 395.493927,394.879761 
	C397.246643,394.924866 399.641479,396.359222 400.567322,397.870056 
	C406.121368,406.933380 411.450104,416.142639 416.543030,425.472900 
	C417.389679,427.023926 417.442535,429.806274 416.611542,431.343689 
	C411.715515,440.402374 406.563477,449.330597 401.200897,458.121704 
	C400.252106,459.677155 397.928162,461.286621 396.201233,461.329132 
	C385.243622,461.599030 374.273346,461.531921 363.312927,461.303558 
	C361.796204,461.272003 360.310822,459.737000 358.591370,458.590302 
M359.683777,432.496521 
	C363.404083,443.831055 373.700012,449.350250 384.255463,445.668335 
	C394.119324,442.227692 399.297211,431.146301 395.630066,421.325378 
	C392.372345,412.600922 382.836548,407.399384 373.947174,409.497955 
	C363.724182,411.911316 358.084198,420.542267 359.683777,432.496521 
z"/>
<path fill="#364651" opacity="1.000000" stroke="none" 
	d="
M417.895081,512.231689 
	C405.166168,508.885529 395.858459,500.973938 386.615906,492.535492 
	C392.383545,485.216339 397.884094,478.182098 403.478027,471.222931 
	C404.024231,470.543427 405.106415,470.077728 406.007019,469.933990 
	C414.353882,468.601990 422.715515,467.362427 431.694763,466.001801 
	C434.788086,478.994293 437.239532,491.957123 432.682037,505.062714 
	C430.396545,511.634918 425.968048,513.568848 417.895081,512.231689 
z"/>
<path fill="#364651" opacity="1.000000" stroke="none" 
	d="
M432.470581,438.532898 
	C428.338867,431.665131 428.563110,425.383667 432.220612,418.589508 
	C434.942566,413.533234 436.402740,407.797729 438.623840,401.830231 
	C450.671051,405.658051 462.367828,409.760345 471.380493,418.963715 
	C477.410217,425.121002 477.336731,431.144501 471.252686,437.324188 
	C462.311981,446.405396 450.722198,450.479279 438.434326,454.384644 
	C436.432220,449.033600 434.533447,443.958801 432.470581,438.532898 
z"/>
<path fill="#364651" opacity="1.000000" stroke="none" 
	d="
M326.256073,503.390961 
	C323.305511,491.381622 324.757019,479.875031 327.345673,468.457336 
	C327.569611,467.469635 329.507904,466.571869 330.808228,466.223694 
	C331.805817,465.956573 333.044495,466.672455 334.190552,466.863647 
	C341.229889,468.037903 349.782013,467.103760 354.951996,470.847076 
	C362.199951,476.094910 366.932159,484.817230 373.048492,492.437073 
	C364.164673,500.795380 354.921661,508.536316 342.914124,511.941223 
	C334.160919,514.423279 330.155273,512.257385 326.256073,503.390961 
z"/>
<path fill="#364651" opacity="1.000000" stroke="none" 
	d="
M311.943604,451.127228 
	C304.159760,446.662506 296.133270,443.082825 289.492096,437.771149 
	C281.948029,431.737396 282.406616,424.916748 289.419403,418.138397 
	C298.176605,409.673981 309.315674,405.769348 320.818634,401.933685 
	C324.234375,410.549957 327.565033,418.818909 330.741791,427.146545 
	C331.106293,428.102020 330.866699,429.483948 330.474182,430.501068 
	C327.486664,438.242401 324.391296,445.942139 321.110443,454.206787 
	C318.188049,453.223724 315.250397,452.235565 311.943604,451.127228 
z"/>
<path fill="#364651" opacity="1.000000" stroke="none" 
	d="
M421.115845,344.141296 
	C427.579987,343.964447 431.247864,347.216644 432.992310,352.656616 
	C437.017883,365.210205 434.684143,377.557220 431.983582,390.180908 
	C422.531494,388.763336 413.678589,387.471558 404.845947,386.053589 
	C403.991241,385.916382 403.084930,385.140289 402.502319,384.418762 
	C397.287903,377.960571 392.140656,371.448090 386.581665,364.458649 
	C396.609100,355.310669 406.748505,346.640564 421.115845,344.141296 
z"/>
<path fill="#364651" opacity="1.000000" stroke="none" 
	d="
M325.725098,380.192169 
	C325.761932,371.342316 324.935486,362.779327 326.259186,354.562683 
	C327.712860,345.538940 333.642700,342.608826 342.492462,344.926697 
	C354.645752,348.109802 363.780640,356.087555 373.105652,364.388184 
	C367.481720,371.448242 362.063568,378.289154 356.573425,385.071838 
	C356.107269,385.647766 355.194489,386.049652 354.432098,386.169739 
	C345.770752,387.533661 337.098236,388.826874 327.589264,390.266083 
	C326.982758,386.982697 326.396179,383.807190 325.725098,380.192169 
z"/>
<path fill="#374853" opacity="1.000000" stroke="none" 
	d="
M386.539307,471.008789 
	C388.292999,471.004395 389.609375,471.004395 392.239197,471.004395 
	C387.899597,476.256073 384.204041,480.728333 379.900238,485.936707 
	C375.687805,480.992645 371.910065,476.558777 367.185089,471.013153 
	C374.388367,471.013153 380.245178,471.013153 386.539307,471.008789 
z"/>
<path fill="#374A55" opacity="1.000000" stroke="none" 
	d="
M418.885132,410.148987 
	C416.223450,405.553741 413.731445,401.287170 410.636536,395.988434 
	C417.288239,397.145325 422.977966,398.134888 429.751587,399.312988 
	C427.564697,405.356262 425.605469,410.770294 423.140472,417.582092 
	C421.274994,414.338348 420.164886,412.408020 418.885132,410.148987 
z"/>
<path fill="#374A55" opacity="1.000000" stroke="none" 
	d="
M345.096680,396.730652 
	C346.258636,396.533813 347.056763,396.401001 348.833557,396.105347 
	C344.636597,403.396729 340.836060,409.999359 336.455811,417.609131 
	C334.114838,411.070679 332.142090,405.560730 329.947235,399.430420 
	C335.347900,398.467682 340.040375,397.631165 345.096680,396.730652 
z"/>
<path fill="#374A55" opacity="1.000000" stroke="none" 
	d="
M423.563232,441.048157 
	C425.599854,446.260315 427.417969,451.220306 429.461060,456.794067 
	C423.362427,457.946533 417.874054,458.983704 412.385681,460.020844 
	C412.047241,459.716888 411.708801,459.412933 411.370361,459.108978 
	C415.361816,453.004639 419.353271,446.900330 423.563232,441.048157 
z"/>
<path fill="#374A55" opacity="1.000000" stroke="none" 
	d="
M340.917175,447.079102 
	C343.322815,451.266998 345.565308,455.128540 348.434998,460.070068 
	C342.040039,458.932861 336.649597,457.974304 330.241547,456.834778 
	C332.290955,451.032928 334.132568,445.819458 336.374054,439.473846 
	C338.176300,442.468903 339.465179,444.610809 340.917175,447.079102 
z"/>
<path fill="#374852" opacity="1.000000" stroke="none" 
	d="
M373.405396,385.072815 
	C371.825745,385.017151 370.691986,384.957306 368.219635,384.826752 
	C372.324646,379.947784 375.822540,375.790466 379.816101,371.043976 
	C383.807800,375.742737 387.291107,379.843018 391.730347,385.068573 
	C384.890015,385.068573 379.370667,385.068573 373.405396,385.072815 
z"/>
<path fill="#4DBFDC" opacity="1.000000" stroke="none" 
	d="
M359.556458,432.105896 
	C358.084198,420.542267 363.724182,411.911316 373.947174,409.497955 
	C382.836548,407.399384 392.372345,412.600922 395.630066,421.325378 
	C399.297211,431.146301 394.119324,442.227692 384.255463,445.668335 
	C373.700012,449.350250 363.404083,443.831055 359.556458,432.105896 
z"/>
</svg>